<svg id="SvgjsSvg1000" xmlns="http://www.w3.org/2000/svg" version="1.1" xmlns:xlink="http://www.w3.org/1999/xlink" xmlns:svgjs="http://svgjs.com/svgjs" width="128" height="34" viewBox="0 0 128 34"><title>Shape 2 copy</title><desc>Created with Avocode.</desc><defs id="SvgjsDefs1001"></defs><path id="SvgjsPath1007" d="M1150.065 3443.66259L1150.065 3417.66259L1262.065 3417.66259L1262.065 3443.66259Z " fill="#76a1cc" fill-opacity="1" transform="matrix(1,0,0,1,-1085,-3404)"></path><path id="SvgjsPath1008" d="M1094.38 3427.26C1159.2 3375.46 1205.75 3430.32 1205.75 3430.32 " fill-opacity="0" fill="#ffffff" stroke-dasharray="0" stroke-linejoin="miter" stroke-linecap="round" stroke-opacity="1" stroke="#76a1cc" stroke-miterlimit="50" stroke-width="2" transform="matrix(1,0,0,1,-1085,-3404)"></path><path id="SvgjsPath1009" d="M1085.4 3433.53L1096.0800000000002 3433.73L1088.1200000000001 3423.21L1085.4 3433.53 " fill="#9aca40" fill-opacity="1" transform="matrix(1,0,0,1,-1085,-3404)"></path><path id="SvgjsPath1010" d="M1085.4 3433.53L1096.0800000000002 3433.73L1088.1200000000001 3423.21L1085.4 3433.53 " fill="#76a1cc" fill-opacity="1" transform="matrix(1,0,0,1,-1085,-3404)"></path><path id="SvgjsPath1011" d="M1213 3436.8L1201.99 3437.01L1210.2 3425.9900000000002L1213 3436.8 " fill="#9aca40" fill-opacity="1" transform="matrix(1,0,0,1,-1085,-3404)"></path><path id="SvgjsPath1012" d="M1213 3436.8L1201.99 3437.01L1210.2 3425.9900000000002L1213 3436.8 " fill="#76a1cc" fill-opacity="1" transform="matrix(1,0,0,1,-1085,-3404)"></path></svg>